<?xml version="1.0" encoding="utf-8" ?>
<svg xmlns="http://www.w3.org/2000/svg" xmlns:ev="http://www.w3.org/2001/xml-events" xmlns:xlink="http://www.w3.org/1999/xlink" baseProfile="full" height="200" version="1.1" width="400">
  <defs>
    <style type="text/css"><![CDATA[.background path {fill: #808080; fill-opacity: 0}.background path:nth-child(odd) {fill-opacity: .1}.x-regions rect {fill: yellow; stroke: black; opacity: 0.5}.axes {font-size: 14px}.x-axis .tick .lab {font-weight: bold; dominant-baseline: hanging}.axes, .tree {font-size: 14px; text-anchor: middle}.axes line, .edge {stroke: black; fill: none}.axes .ax-skip {stroke-dasharray: 4}.y-axis .grid {stroke: #FAFAFA}.node > .sym {fill: black; stroke: none}.site > .sym {stroke: black}.mut text {fill: red; font-style: italic}.mut.extra text {fill: hotpink}.mut line {fill: none; stroke: none}.mut .sym {fill: none; stroke: red}.mut.extra .sym {stroke: hotpink}.node .mut .sym {stroke-width: 1.5px}.tree text, .tree-sequence text {dominant-baseline: central}.plotbox .lab.lft {text-anchor: end}.plotbox .lab.rgt {text-anchor: start}]]></style>
  </defs>
  <g class="tree-sequence">
    <g class="axes">
      <g class="y-axis">
        <g class="title" transform="translate(0 92.5)">
          <text class="lab" text-anchor="middle" transform="translate(11) rotate(-90)">generations</text>
        </g>
      </g>
    </g>
    <g class="plotbox trees">
      <g class="tree t0" transform="translate(20 0)">
        <g class="plotbox">
          <g class="c2 node n19 root" transform="translate(102.153 26.4667)">
            <g class="a19 c2 node n12" transform="translate(-26.7361 103.25)">
              <g class="a12 leaf node n8 sample" transform="translate(14.5833 28.4829)">
                <path class="edge" d="M 0 0 V -28.4829 H -14.5833"/>
                <rect class="sym" height="6" width="6" x="-3" y="-3"/>
                <text class="lab" transform="translate(0 11)"/>
              </g>
              <g class="a12 c2 m0 node n11 s0" transform="translate(-14.5833 17.8018)">
                <g class="a11 leaf node n3 sample" transform="translate(13.6111 10.6811)">
                  <path class="edge" d="M 0 0 V -10.6811 H -13.6111"/>
                  <rect class="sym" height="6" width="6" x="-3" y="-3"/>
                  <text class="lab" transform="translate(0 11)"/>
                </g>
                <g class="a11 c2 node n10" transform="translate(-13.6111 3.56036)">
                  <g class="a10 leaf node n2 sample" transform="translate(11.6667 7.12072)">
                    <path class="edge" d="M 0 0 V -7.12072 H -11.6667"/>
                    <rect class="sym" height="6" width="6" x="-3" y="-3"/>
                    <text class="lab" transform="translate(0 11)"/>
                  </g>
                  <g class="a10 c2 node n9" transform="translate(-11.6667 3.56036)">
                    <g class="a9 leaf node n0 sample" transform="translate(-7.77778 3.56036)">
                      <path class="edge" d="M 0 0 V -3.56036 H 7.77778"/>
                      <rect class="sym" height="6" width="6" x="-3" y="-3"/>
                      <text class="lab" transform="translate(0 11)"/>
                    </g>
                    <g class="a9 leaf node n1 sample" transform="translate(7.77778 3.56036)">
                      <path class="edge" d="M 0 0 V -3.56036 H -7.77778"/>
                      <rect class="sym" height="6" width="6" x="-3" y="-3"/>
                      <text class="lab" transform="translate(0 11)"/>
                    </g>
                    <path class="edge" d="M 0 0 V -3.56036 H 11.6667"/>
                    <circle class="sym" cx="0" cy="0" r="3"/>
                    <text class="lab lft" transform="translate(-3 -7.0)"/>
                  </g>
                  <path class="edge" d="M 0 0 V -3.56036 H 13.6111"/>
                  <circle class="sym" cx="0" cy="0" r="3"/>
                  <text class="lab lft" transform="translate(-3 -7.0)"/>
                </g>
                <path class="edge" d="M 0 0 V -17.8018 H 14.5833"/>
                <g class="mut m0 s0" transform="translate(0 -10.6811)">
                  <line x1="0" x2="0" y1="0" y2="10.6811"/>
                  <path class="sym" d="M -3,-3 l 6,6 M -3,3 l 6,-6"/>
                  <text class="lab lft" transform="translate(-5 0)"/>
                </g>
                <circle class="sym" cx="0" cy="0" r="3"/>
                <text class="lab lft" transform="translate(-3 -7.0)"/>
              </g>
              <path class="edge" d="M 0 0 V -103.25 H 26.7361"/>
              <circle class="sym" cx="0" cy="0" r="3"/>
              <text class="lab lft" transform="translate(-3 -7.0)"/>
            </g>
            <g class="a19 c2 node n18" transform="translate(26.7361 7.12072)">
              <g class="a18 c2 node n16" transform="translate(-15.5556 71.2072)">
                <g class="a16 leaf node n4 sample" transform="translate(-7.77778 53.4054)">
                  <path class="edge" d="M 0 0 V -53.4054 H 7.77778"/>
                  <rect class="sym" height="6" width="6" x="-3" y="-3"/>
                  <text class="lab" transform="translate(0 11)"/>
                </g>
                <g class="a16 leaf node n5 sample" transform="translate(7.77778 53.4054)">
                  <path class="edge" d="M 0 0 V -53.4054 H -7.77778"/>
                  <rect class="sym" height="6" width="6" x="-3" y="-3"/>
                  <text class="lab" transform="translate(0 11)"/>
                </g>
                <path class="edge" d="M 0 0 V -71.2072 H 15.5556"/>
                <circle class="sym" cx="0" cy="0" r="3"/>
                <text class="lab lft" transform="translate(-3 -7.0)"/>
              </g>
              <g class="a18 c2 node n17" transform="translate(15.5556 35.6036)">
                <g class="a17 leaf node n6 sample" transform="translate(-7.77778 89.009)">
                  <path class="edge" d="M 0 0 V -89.009 H 7.77778"/>
                  <rect class="sym" height="6" width="6" x="-3" y="-3"/>
                  <text class="lab" transform="translate(0 11)"/>
                </g>
                <g class="a17 leaf node n7 sample" transform="translate(7.77778 89.009)">
                  <path class="edge" d="M 0 0 V -89.009 H -7.77778"/>
                  <rect class="sym" height="6" width="6" x="-3" y="-3"/>
                  <text class="lab" transform="translate(0 11)"/>
                </g>
                <path class="edge" d="M 0 0 V -35.6036 H -15.5556"/>
                <circle class="sym" cx="0" cy="0" r="3"/>
                <text class="lab rgt" transform="translate(3 -7.0)"/>
              </g>
              <path class="edge" d="M 0 0 V -7.12072 H -26.7361"/>
              <circle class="sym" cx="0" cy="0" r="3"/>
              <text class="lab rgt" transform="translate(3 -7.0)"/>
            </g>
            <path class="edge" d="M 0 0 V -16.4667 H 0"/>
            <circle class="sym" cx="0" cy="0" r="3"/>
            <text class="lab rgt" transform="translate(3 -7.0)"/>
          </g>
        </g>
      </g>
      <g class="tree t1" transform="translate(200 0)">
        <g class="plotbox">
          <g class="c2 node n19 root" transform="translate(92.9167 26.4667)">
            <g class="a19 c2 node n18" transform="translate(32.0833 7.12072)">
              <g class="a18 c3 node n16" transform="translate(-19.4444 71.2072)">
                <g class="a16 leaf node n4 sample" transform="translate(-15.5556 53.4054)">
                  <path class="edge" d="M 0 0 V -53.4054 H 15.5556"/>
                  <rect class="sym" height="6" width="6" x="-3" y="-3"/>
                  <text class="lab" transform="translate(0 11)"/>
                </g>
                <g class="a16 leaf node n5 sample" transform="translate(0.0 53.4054)">
                  <path class="edge" d="M 0 0 V -53.4054 H 0.0"/>
                  <rect class="sym" height="6" width="6" x="-3" y="-3"/>
                  <text class="lab" transform="translate(0 11)"/>
                </g>
                <g class="a16 leaf node n8 sample" transform="translate(15.5556 53.4054)">
                  <path class="edge" d="M 0 0 V -53.4054 H -15.5556"/>
                  <rect class="sym" height="6" width="6" x="-3" y="-3"/>
                  <text class="lab" transform="translate(0 11)"/>
                </g>
                <path class="edge" d="M 0 0 V -71.2072 H 19.4444"/>
                <circle class="sym" cx="0" cy="0" r="3"/>
                <text class="lab lft" transform="translate(-3 -7.0)"/>
              </g>
              <g class="a18 c2 node n17" transform="translate(19.4444 35.6036)">
                <g class="a17 leaf node n6 sample" transform="translate(-7.77778 89.009)">
                  <path class="edge" d="M 0 0 V -89.009 H 7.77778"/>
                  <rect class="sym" height="6" width="6" x="-3" y="-3"/>
                  <text class="lab" transform="translate(0 11)"/>
                </g>
                <g class="a17 leaf node n7 sample" transform="translate(7.77778 89.009)">
                  <path class="edge" d="M 0 0 V -89.009 H -7.77778"/>
                  <rect class="sym" height="6" width="6" x="-3" y="-3"/>
                  <text class="lab" transform="translate(0 11)"/>
                </g>
                <path class="edge" d="M 0 0 V -35.6036 H -19.4444"/>
                <circle class="sym" cx="0" cy="0" r="3"/>
                <text class="lab rgt" transform="translate(3 -7.0)"/>
              </g>
              <path class="edge" d="M 0 0 V -7.12072 H -32.0833"/>
              <circle class="sym" cx="0" cy="0" r="3"/>
              <text class="lab rgt" transform="translate(3 -7.0)"/>
            </g>
            <g class="a19 c2 m1 node n15 s1" transform="translate(-32.0833 24.9225)">
              <g class="a15 leaf node n3 sample" transform="translate(13.6111 106.811)">
                <path class="edge" d="M 0 0 V -106.811 H -13.6111"/>
                <rect class="sym" height="6" width="6" x="-3" y="-3"/>
                <text class="lab" transform="translate(0 11)"/>
              </g>
              <g class="a15 c2 node n14" transform="translate(-13.6111 35.6036)">
                <g class="a14 leaf node n2 sample" transform="translate(11.6667 71.2072)">
                  <path class="edge" d="M 0 0 V -71.2072 H -11.6667"/>
                  <rect class="sym" height="6" width="6" x="-3" y="-3"/>
                  <text class="lab" transform="translate(0 11)"/>
                </g>
                <g class="a14 c2 node n13" transform="translate(-11.6667 35.6036)">
                  <g class="a13 leaf node n0 sample" transform="translate(-7.77778 35.6036)">
                    <path class="edge" d="M 0 0 V -35.6036 H 7.77778"/>
                    <rect class="sym" height="6" width="6" x="-3" y="-3"/>
                    <text class="lab" transform="translate(0 11)"/>
                  </g>
                  <g class="a13 leaf node n1 sample" transform="translate(7.77778 35.6036)">
                    <path class="edge" d="M 0 0 V -35.6036 H -7.77778"/>
                    <rect class="sym" height="6" width="6" x="-3" y="-3"/>
                    <text class="lab" transform="translate(0 11)"/>
                  </g>
                  <path class="edge" d="M 0 0 V -35.6036 H 11.6667"/>
                  <circle class="sym" cx="0" cy="0" r="3"/>
                  <text class="lab lft" transform="translate(-3 -7.0)"/>
                </g>
                <path class="edge" d="M 0 0 V -35.6036 H 13.6111"/>
                <circle class="sym" cx="0" cy="0" r="3"/>
                <text class="lab lft" transform="translate(-3 -7.0)"/>
              </g>
              <path class="edge" d="M 0 0 V -24.9225 H 32.0833"/>
              <g class="mut m1 s1" transform="translate(0 -7.12072)">
                <line x1="0" x2="0" y1="0" y2="7.12072"/>
                <path class="sym" d="M -3,-3 l 6,6 M -3,3 l 6,-6"/>
                <text class="lab lft" transform="translate(-5 0)"/>
              </g>
              <circle class="sym" cx="0" cy="0" r="3"/>
              <text class="lab lft" transform="translate(-3 -7.0)"/>
            </g>
            <path class="edge" d="M 0 0 V -16.4667 H 0"/>
            <circle class="sym" cx="0" cy="0" r="3"/>
            <text class="lab rgt" transform="translate(3 -7.0)"/>
          </g>
        </g>
      </g>
    </g>
  </g>
</svg>
